<?xml version="1.0" encoding="UTF-8"?>
<svg id="Layer_1" data-name="Layer 1" xmlns="http://www.w3.org/2000/svg" viewBox="0 0 931.4 931.4">
  <defs>
    <style>
      .cls-1, .cls-2 {
        fill: #fff;
      }

      .cls-3 {
        fill: #6ab1cd;
      }

      .cls-4 {
        letter-spacing: .2em;
      }

      .cls-2 {
        font-family: Rubik-Regular, Rubik;
        font-size: 126.83px;
      }

      .cls-5 {
        letter-spacing: .19em;
      }

      .cls-6 {
        letter-spacing: .2em;
      }

      .cls-7 {
        fill: #1d1d1b;
      }
    </style>
  </defs>
  <circle class="cls-7" cx="465.7" cy="465.7" r="465.7"/>
  <g>
    <text class="cls-2" transform="translate(218.78 677.22)"><tspan class="cls-4" x="0" y="0">O</tspan><tspan class="cls-5" x="111.22" y="0">p</tspan><tspan class="cls-6" x="211.42" y="0">tics</tspan></text>
    <path class="cls-1" d="m201.83,546.03c-5.34,0-10.22-3.04-12.57-7.84l-102.11-208.34c-3.4-6.94-.53-15.33,6.41-18.73,6.94-3.4,15.33-.53,18.73,6.41l89.54,182.69,89.54-182.69c3.4-6.94,11.79-9.81,18.73-6.41,6.94,3.4,9.81,11.79,6.41,18.73l-102.11,208.34c-2.35,4.8-7.23,7.84-12.57,7.84Z"/>
    <path class="cls-1" d="m567.71,417.95h-28.24c.69,4.57,1.04,9.24,1.04,14s-.35,9.43-1.04,14c0,.03-.01.06-.01.08h28.24s0-.06,0-.08c.53-4.6.8-9.27.8-14s-.27-9.41-.8-14Z"/>
    <path class="cls-1" d="m832.86,417.95c-6.96-60.85-58.77-108.26-121.45-108.26s-114.5,47.41-121.46,108.26c-.53,4.59-.8,9.27-.8,14s.27,9.4.8,14c0,.02,0,.05,0,.08,1.12,9.72,3.38,19.1,6.65,28,17.19,46.74,62.16,80.17,114.8,80.17s97.6-33.43,114.79-80.17c3.27-8.9,5.53-18.28,6.65-28,0-.03,0-.06,0-.08.53-4.6.8-9.27.8-14s-.27-9.41-.8-14Zm-28.25,28.08c-1.49,9.92-4.54,19.34-8.89,28-15.47,30.91-47.46,52.17-84.31,52.17s-68.84-21.26-84.32-52.17c-4.35-8.66-7.4-18.08-8.89-28,0-.02-.01-.05-.01-.08-.69-4.57-1.04-9.24-1.04-14s.35-9.43,1.04-14c6.78-45.36,46-80.26,93.22-80.26s86.43,34.9,93.21,80.26c.69,4.57,1.04,9.24,1.04,14s-.35,9.43-1.04,14c0,.03-.01.06-.01.08Z"/>
    <path class="cls-1" d="m530.57,474.03h30.48c-17.19,46.74-62.16,80.17-114.79,80.17s-97.6-33.43-114.8-80.17c-3.27-8.9-5.53-18.28-6.65-28,0-.03,0-.06,0-.08-.53-4.6-.8-9.27-.8-14s.27-9.41.8-14c6.96-60.85,58.78-108.26,121.46-108.26s114.49,47.41,121.45,108.26h-28.24c-6.78-45.36-45.99-80.26-93.21-80.26s-86.44,34.9-93.22,80.26c-.69,4.57-1.04,9.24-1.04,14s.35,9.43,1.04,14c0,.03.01.06.01.08,1.49,9.92,4.54,19.34,8.89,28,15.48,30.91,47.46,52.17,84.32,52.17s68.84-21.26,84.31-52.17Z"/>
    <path class="cls-1" d="m324,431.95c0,4.73.27,9.4.8,14h-31.03c-7.74,0-14-6.27-14-14s6.26-14,14-14h31.03c-.53,4.59-.8,9.27-.8,14Z"/>
    <path class="cls-3" d="m589.15,431.95c0,4.73.27,9.4.8,14h-236.91c-.69-4.57-1.04-9.24-1.04-14s.35-9.43,1.04-14h236.91c-.53,4.59-.8,9.27-.8,14Z"/>
    <path class="cls-1" d="m879.68,431.95c0,7.73-6.27,14-14,14h-32.82c.53-4.6.8-9.27.8-14s-.27-9.41-.8-14h32.82c7.73,0,14,6.26,14,14Z"/>
    <path class="cls-3" d="m719.4,398.44l7.42-31.13c-4.29-1.02-8.74-1.62-13.31-1.76l-1.01,31.98c2.37.07,4.68.38,6.9.91Z"/>
    <path class="cls-3" d="m740.57,413.64l27.07-17.04c-7.59-12.04-18.94-21.49-32.39-26.68l-11.48,29.87c6.98,2.69,12.86,7.6,16.79,13.84Z"/>
  </g>
</svg>